<svg width="80" height="80" viewBox="0 0 80 80" fill="none" xmlns="http://www.w3.org/2000/svg">
<path d="M24.5833 55.9366L28.75 50.73L15.3367 40L28.75 29.27L24.5833 24.0633L7.91666 37.3966C7.52615 37.7089 7.21089 38.1051 6.99424 38.5557C6.77759 39.0063 6.6651 39.5 6.6651 40C6.6651 40.5 6.77759 40.9936 6.99424 41.4443C7.21089 41.8949 7.52615 42.291 7.91666 42.6033L24.5833 55.9366ZM55.4167 24.0633L51.25 29.27L64.6633 40L51.25 50.73L55.4167 55.9366L72.0833 42.6033C72.4738 42.291 72.7891 41.8949 73.0057 41.4443C73.2224 40.9936 73.3349 40.5 73.3349 40C73.3349 39.5 73.2224 39.0063 73.0057 38.5557C72.7891 38.1051 72.4738 37.7089 72.0833 37.3966L55.4167 24.0633ZM49.92 10.72L36.5867 70.72L30.0767 69.2733L43.41 9.27332L49.92 10.72Z" fill="black"/>
</svg>
